<?xml version="1.0" encoding="UTF-8" standalone="no"?>
<!-- Created with Inkscape (http://www.inkscape.org/) -->
<svg id="svg2" xmlns:rdf="http://www.w3.org/1999/02/22-rdf-syntax-ns#" xmlns="http://www.w3.org/2000/svg" height="142.71mm" width="229.77mm" version="1.1" xmlns:cc="http://creativecommons.org/ns#" xmlns:dc="http://purl.org/dc/elements/1.1/" viewBox="0 0 814.13428 505.6537">
 <metadata id="metadata7">
  <rdf:RDF>
   <cc:Work rdf:about="">
    <dc:format>image/svg+xml</dc:format>
    <dc:type rdf:resource="http://purl.org/dc/dcmitype/StillImage"/>
    <dc:title/>
   </cc:Work>
  </rdf:RDF>
 </metadata>
 <g id="layer1" transform="translate(35.639 -295.82)">
  <path id="path3448" d="m727.61 763.04c-18.366-14.729-36.97-29.457-41.343-32.73-6.927-5.1842-7.4388-6.7883-3.9753-12.46 2.9605-4.8482 3.8839-29.861 3.6172-97.984l-0.35802-91.474-17.762 72.35c-9.7692 39.792-18.69 72.35-19.824 72.35-1.1339 0-10.511-38.256-20.837-85.013l-18.776-85.013-0.84874 81.833c-0.46682 45.008-1.7508 81.833-2.8534 81.833-1.5508 0-35.647-27.868-62.848-51.368-1.7424-1.5053-0.7679-4.9521 2.3852-8.4361 4.817-5.3227 5.3312-19.298 5.3312-144.89 0-123.25-0.58866-139.89-5.195-146.92l-5.195-7.9286 45.469 0.88496 45.469 0.88496 9.301 34.982c5.1155 19.24 10.258 35.995 11.429 37.232 1.1702 1.2376 7.0137-14.862 12.985-35.777l10.858-38.027 47.952 0.10049 47.952 0.1005-8.7456 7.6975-8.7456 7.6975v219.52c0 195.23 0.57199 220.95 5.1684 232.44 2.8426 7.1044 4.6315 13.362 3.9753 13.906-0.65624 0.54382-16.22-11.062-34.585-25.791zm-748.69 0.41346c1.666-3.4664 3.2958-99.731 3.7855-223.6 0.75773-191.67 0.27679-218.4-4.0486-225l-4.9085-7.4912h75.325 75.325l15.384 9.8722 15.384 9.8722v141.73c0 127.61 0.52615 142.31 5.2809 147.57 2.9045 3.2094 4.6933 6.3309 3.9753 6.9366-8.4547 7.1323-180.59 141.36-183.91 143.41-3.5994 2.2214-3.922 1.5518-1.5901-3.3001zm95.947-198.35 13.516-11.026v-89.963-89.963h-19.081-19.081v105.34c0 99.857 0.28953 105.11 5.5654 100.99 3.061-2.3915 11.648-9.3097 19.081-15.374zm136.75 75.9-43.728-34.965 0.006-140.59 0.006-140.59 13.844-8.7456 13.844-8.7456h62.662 62.662l12.534 10.073 12.534 10.073-0.0137 138.6-0.0136 138.6-43.054 34.982c-23.68 19.24-44.067 35.272-45.304 35.625-1.2375 0.35373-21.928-15.091-45.978-34.322zm67.58-158.72v-104.95h-22.261-22.261v88.253 88.253l21.169 16.694c11.643 9.1815 21.661 16.694 22.261 16.694 0.60085 0 1.0924-47.226 1.0924-104.95zm123.27 157.88-43.62-35.442-0.0741-139.93-0.0738-139.93 10.961-8.7456 10.961-8.7456h64.236 64.236l13.844 8.7456 13.844 8.7456-0.10495 139.93-0.10495 139.93-29.306 22.732c-16.118 12.503-36.477 28.451-45.241 35.442l-15.935 12.71-43.62-35.442zm64.359-175.94v-90.065h-20.671-20.671v106.63 106.63l20.671-16.565 20.671-16.565v-90.065z" fill="#e8e8e8"/>
  <path id="path3446" d="m720.73 756.87c-21.576-16.886-39.791-31.162-40.478-31.725-0.68654-0.56337 0.40837-3.0204 2.4331-5.4601 2.6502-3.1932 3.4452-31.053 2.8383-99.458l-0.84301-95.023-17.357 73.94c-9.5464 40.667-18.135 73.94-19.086 73.94-0.95117 0-10.314-38.997-20.806-86.661l-19.076-86.661-0.84785 83.481c-0.46634 45.914-1.6018 83.481-2.5233 83.481s-15.566-11.736-32.544-26.08-31.582-26.626-32.454-27.292c-0.87179-0.66633 0.91708-3.0411 3.9753-5.2773 5.1492-3.7652 5.5604-14.511 5.5604-145.32 0-122.7-0.65032-142.18-4.9506-148.32l-4.9507-7.068h44.478 44.478l5.0717 17.446c2.7894 9.5953 7.5168 26.768 10.505 38.163 2.9884 11.394 6.2304 20.717 7.2045 20.717 0.974 0 6.7395-16.815 12.812-37.368l11.041-37.367 47.668-0.73627 47.668-0.73626-8.7456 7.2162-8.7456 7.2162 0.13961 220.91c0.11131 176.15 1.0018 223.32 4.3956 232.83 2.3408 6.5592 3.8314 11.926 3.3125 11.926-0.51895 0-18.597-13.815-40.173-30.701zm-741.86 6.8494c1.7372-3.7072 3.3304-97.774 3.819-225.5 0.76862-200.89 0.39656-219.62-4.4682-225-5.1428-5.6827-2.9491-5.8637 71.054-5.8637h76.361l14.768 11.276 14.768 11.276v140.33c0 122.96 0.61691 141.01 4.9854 145.84 4.6173 5.102 3.3845 6.7795-16.696 22.72-19.86 15.765-152.37 119.64-163 127.78-3.7803 2.8938-4.0553 2.3989-1.5901-2.8616zm94.412-196.85 15.106-12.452v-90.138-90.138h-20.671-20.671v106.93c0 101.37 0.28937 106.7 5.5654 102.59 3.061-2.3852 12.363-9.9399 20.671-16.788zm138.34 73.838-43.728-35.015v-139.47-139.47l14.089-9.6934 14.089-9.6934h63.181 63.181l11.776 12.06 11.776 12.06v135.83 135.83l-43.152 35.765c-23.734 19.671-44.127 36.002-45.318 36.291-1.1914 0.28909-21.844-15.231-45.894-34.489zm66.827-159.23-0.83792-105.74h-20.671-20.671l-0.84353 89.223-0.84353 89.223 19.925 16.32c10.959 8.9759 21.017 16.41 22.353 16.519 1.3354 0.10969 2.051-47.384 1.5901-105.54zm122.59 157.36-41.939-34.131-0.19883-138.51-0.19886-138.51 10.487-10.164 10.487-10.164h65.361 65.361l13.198 9.5606 13.198 9.5606v138.33 138.33l-43.216 34.174c-23.769 18.796-44.877 34.506-46.908 34.913-2.0308 0.40653-22.565-14.62-45.631-33.392zm52.275-73.574 16.696-13.624-0.0434-81.594c-0.0239-44.877-0.90636-84.814-1.961-88.75-1.7347-6.4729-3.854-7.1555-22.218-7.1555h-20.3v107.03c0 101.59 0.28304 106.79 5.5654 102.37 3.061-2.5612 13.079-10.787 22.261-18.28z" fill="#d6d6d6"/>
  <path id="path3444" d="m719.75 755.6c-31.466-24.945-39.572-32.896-36.862-36.161 2.3826-2.8709 3.2084-34.02 2.6301-99.208l-0.84301-95.023-17.491 73.916c-9.6201 40.654-18.209 73.927-19.086 73.94-0.87739 0.0127-10.18-38.973-20.671-86.637l-19.076-86.661-1.5901 84.049-1.5901 84.049-32.931-28.082c-26.626-22.706-31.954-28.629-27.827-30.939 4.567-2.5558 5.1043-17.831 5.1043-145.1 0-123.59-0.64905-143.17-4.9506-149.31l-4.9507-7.068h44.489c39.622 0 44.669 0.60878 46.137 5.5654 0.90652 3.061 5.3517 19.161 9.8781 35.777 4.5264 16.617 9.0286 32.359 10.005 34.982 0.97638 2.6237 7.0645-13.118 13.529-34.982l11.754-39.753 47.567-0.74847 47.567-0.74848-8.7456 6.5791-8.7456 6.5791v222.45c0 187.06 0.73316 224.21 4.608 233.48 2.5344 6.0657 4.1176 11.029 3.5182 11.029-0.59943 0-19.241-14.389-41.425-31.976zm-740.92 8.1006c1.7916-3.7576 3.3625-95.523 3.8597-225.47 0.76862-200.89 0.39656-219.62-4.4682-225-5.1429-5.6828-2.9611-5.8613 70.716-5.7849l76.023 0.0788 15.106 11.083 15.106 11.083v141.93c0 127.8 0.51855 142.31 5.2089 145.74 5.1041 3.7322-15.911 21.189-172.01 142.88-9.8275 7.6613-11.904 8.4138-9.5406 3.4566zm94.928-196.43 15.582-13.802-0.41219-82.504c-0.2267-45.377-0.44069-85.724-0.47552-89.659-0.05912-6.6801-1.4366-7.1555-20.735-7.1555h-20.671v106.65c0 120.88-2.6061 112.44 26.712 86.472zm138.99 73.612-44.859-35.585v-139.27-139.27l14.089-9.6934 14.089-9.6934h62.126 62.126l11.241 9.8701 11.241 9.8701v139.31 139.31l-26.237 21.55c-14.43 11.853-33.599 27.768-42.597 35.367l-16.36 13.817-44.859-35.585zm65.696-159.4-0.83792-105.74-21.466-0.94036-21.466-0.94036v90.486 90.486l19.876 15.982c10.932 8.7899 20.969 16.078 22.304 16.196 1.3354 0.11796 2.051-47.369 1.5901-105.53zm123.19 157.1-41.343-34.222-0.8293-137.98-0.82928-137.98 10.199-10.522 10.199-10.522h64.793 64.793l14.089 9.6934 14.089 9.6934v137.89 137.89l-44.158 35.274c-24.287 19.401-45.395 35.211-46.908 35.133-1.5128-0.0776-21.355-15.541-44.093-34.363zm65.246-84.816c2.0629-2.4856 2.9258-35.393 2.3853-90.962l-0.84689-87.068-21.466-0.94036-21.466-0.94036v106.89 106.89l19.081-14.991c10.495-8.245 20.536-16.744 22.313-18.886z" fill="#cacaca"/>
  <path id="path3442" d="m749.87 778.87c-59.429-46.073-70.153-55.616-66.901-59.534 2.2789-2.746 3.1151-35.573 2.5492-100.07l-0.84231-95.985-17.319 73.311c-9.5252 40.321-18.193 73.311-19.263 73.311-1.0694 0-10.449-38.673-20.844-85.94l-18.9-85.94-1.5901 84.452-1.5901 84.453-31.007-25.791c-30.729-25.56-33.981-29.445-27.827-33.248 2.0434-1.2629 3.1802-52.801 3.1802-144.18 0-123.57-0.64912-143.14-4.9506-149.28l-4.9507-7.068h44.341 44.341l10.287 37.367c5.6579 20.552 11.06 38.676 12.004 40.276 0.9442 1.5995 7.0162-14.858 13.493-36.572l11.776-39.481 47.329-0.88455 47.329-0.88455-10.473 8.8351-10.473 8.8351 0.94563 219.43c0.85504 198.41 1.4634 220.58 6.3487 231.36 2.9717 6.5592 5.1184 11.91 4.7703 11.891-0.34801-0.0191-5.6416-3.9184-11.764-8.6646zm-771-15.15c1.7438-3.715 3.3342-97.504 3.824-225.5 0.76862-200.89 0.39656-219.62-4.4682-225-5.1426-5.6825-2.9748-5.8637 70.143-5.8637h75.45l14.089 9.6934 14.089 9.6934v141.37c0 135.69 0.24777 141.61 6.1726 147.54 6.1099 6.11 5.3598 6.8098-73.94 68.982-44.062 34.545-86.465 67.903-94.229 74.128-10.223 8.1963-13.293 9.5638-11.131 4.9578zm94.466-196.49 18.336-15.714-0.84473-87.893-0.84473-87.893-21.466-0.94036-21.466-0.94036v106.87c0 84.614 0.82784 106.39 3.9753 104.55 2.1864-1.2773 12.226-9.3937 22.311-18.037zm136.7 71.615-42.138-33.708v-139.24-139.24l11.869-8.0652c11.778-8.003 12.386-8.0652 78.91-8.0652h67.041l8.5455 8.9196 8.5455 8.9196v138.56 138.56l-41.146 33.796c-22.63 18.588-43.023 33.677-45.318 33.532-2.2948-0.14473-23.134-15.432-46.31-33.971zm69.17-158.17v-106.54h-22.261-22.261v90.337 90.337l19.876 16.082c10.932 8.8452 20.95 16.135 22.261 16.2 1.3118 0.0646 2.3852-47.824 2.3852-106.42zm121.64 157.05-42.138-35.026v-137.8-137.8l11.241-9.8701 11.241-9.8701h63.716 63.716l14.089 9.6934 14.089 9.6934v137.88 137.88l-44.563 35.286c-24.51 19.407-45.618 35.212-46.908 35.122-1.2897-0.0903-21.307-15.926-44.483-35.19zm52.474-72.105 16.696-13.881v-88.8-88.8h-22.261-22.261v106.93c0 101.33 0.2913 106.7 5.5654 102.68 3.061-2.3349 13.079-10.492 22.261-18.126z" fill="#ababab"/>
  <path id="path3440" d="m718.36 753.89c-35.968-28.347-38.463-31.005-33.871-36.079 4.2593-4.7064 4.9572-19.012 4.9572-101.62 0-52.876-1.1341-95.438-2.5203-94.581-1.3862 0.85668-10.33 34.563-19.876 74.904-9.5459 40.34-18.074 73.355-18.951 73.365-0.87739 0.01-10.18-38.978-20.671-86.642l-19.076-86.661-1.5901 85.189-1.5901 85.189-27.032-22.698c-37.837-31.771-36.999-30.858-32.461-35.396 4.9571-4.9571 5.5979-290.5 0.65874-293.56-9.5399-5.896 0.6148-7.9505 39.296-7.9505h42.476l10.793 39.743c5.9359 21.859 11.6 39.747 12.587 39.753 0.98689 0.005 6.86-17.521 13.051-38.948l11.257-38.958 45.67-0.88653 45.67-0.88654-8.6332 9.0111-8.6332 9.0111v213.19c0 177.96 0.76898 215.74 4.6537 228.65 2.5595 8.5047 4.2061 15.911 3.6589 16.458-0.54709 0.54709-18.467-12.776-39.823-29.607zm-739.44 9.8275c1.6625-3.6159 3.2862-100.92 3.7629-225.5 0.76862-200.89 0.39656-219.62-4.4682-225-5.1426-5.6825-2.9733-5.8637 70.196-5.8637h75.503l14.036 10.08 14.036 10.08v141.52c0 127.95 0.51119 142.09 5.3312 147.42 3.2032 3.5395 4.1553 6.9719 2.3852 8.5991-1.6203 1.4895-40.87 32.413-87.222 68.718s-87.023 68.326-90.38 71.157c-5.7477 4.8459-5.9337 4.775-3.1802-1.2136zm92.413-194.26 20.229-17.76v-88.777-88.777h-22.261-22.261v106.54c0 58.595 0.91461 106.54 2.0325 106.54s11.136-7.992 22.261-17.76zm139.91 69.463-43.354-34.163v-138.74-138.74l12.653-8.3731c12.65-8.3712 12.668-8.3731 78.91-8.3731h66.258l8.5455 8.9196 8.5455 8.9196v138.49 138.49l-41.356 33.864c-22.746 18.625-42.592 33.864-44.102 33.864-1.5106 0-22.256-15.373-46.1-34.163zm67.954-156.65v-108.13h-22.261-22.261v90.47 90.47l21.466 17.573c11.807 9.6651 21.824 17.611 22.261 17.658 0.43728 0.0466 0.79505-48.573 0.79505-108.04zm121.64 155.34-42.138-35.002v-137.76-137.76l11.241-9.8701 11.241-9.8701h63.716 63.716l14.089 9.6934 14.089 9.6934v137.69 137.69l-42.948 33.998c-23.621 18.699-44.73 34.561-46.908 35.248-2.1781 0.68727-22.922-14.501-46.098-33.752zm52.552-71.065 16.347-12.721 0.13548-89.841 0.13545-89.841h-22.261-22.261v106.72c0 102.54 0.22611 106.55 5.7791 102.56 3.1785-2.2856 13.135-9.88 22.126-16.876z" fill="#939393"/>
  <path id="path3438" d="m718.58 753.68c-35.992-28.131-38.596-30.877-34.05-35.9 4.2186-4.6616 4.9219-19.466 4.9219-103.62 0-53.997-1.1825-96.818-2.6278-95.156-1.4453 1.6617-10.32 35.579-19.722 75.371-9.4018 39.792-17.951 72.35-18.997 72.35-1.0467 0-10.649-38.997-21.338-86.661l-19.435-86.661-0.2824 85.071c-0.1552 46.789-1.4574 85.071-2.8934 85.071-2.1114 0-47.77-36.967-59.169-47.906-1.7894-1.7171-0.85293-5.14 2.3852-8.718 4.816-5.3217 5.3311-19.252 5.3311-144.17 0-116.66-0.72999-139.24-4.6692-144.45-2.568-3.3953-4.7147-7.2465-4.7703-8.5584-0.0556-1.3118 19.019-2.3852 42.387-2.3852h42.488l10.682 39.753c5.8751 21.864 11.573 39.753 12.662 39.753 1.0891 0 3.7517-6.0822 5.9169-13.516 2.1653-7.4338 7.4872-25.322 11.827-39.753l7.8898-26.237h44.926 44.925l-8.65 9.0286-8.65 9.0286 0.89952 220.74c0.71971 176.63 1.7454 222.23 5.1324 228.17 2.3281 4.0853 3.6976 7.9631 3.0434 8.6174-0.65424 0.65423-18.727-12.518-40.162-29.271zm-735.87-211.78c0.57172-148.45-0.22537-224.05-2.3852-226.21-1.7841-1.7841-3.2438-4.3887-3.2438-5.788s32.432-2.5442 72.071-2.5442h72.071l15.384 9.8722 15.384 9.8722v141.73c0 128.15 0.51094 142.3 5.3312 147.62 3.1681 3.5007 4.1359 6.9431 2.3852 8.4841-1.6203 1.4263-40.155 31.654-85.632 67.173s-84.832 66.416-87.456 68.661c-4.2349 3.6233-4.6739-20.944-3.9116-218.88zm88.378 28.625 20.395-16.696 0.04251-89.841 0.04251-89.841h-22.261-22.261v106.54c0 58.595 0.82056 106.54 1.8235 106.54s11.001-7.5132 22.219-16.696zm140.47 68.466-43.499-34.278-0.0828-138.71-0.0828-138.71 12.653-8.3731c12.63-8.3584 12.767-8.3731 77.671-8.3731h65.019l9.7846 8.2332 9.7846 8.2332v139 139l-39.657 32.51c-21.812 17.88-41.555 33.238-43.874 34.128-2.319 0.88992-23.791-13.807-47.716-32.66zm67.643-156.72v-108.13h-22.261-22.261v90.47 90.47l21.466 17.573c11.807 9.6651 21.824 17.611 22.261 17.658 0.43728 0.0466 0.79505-48.573 0.79505-108.04zm122.83 155.34-43.323-35.365v-137.67-137.67l11.855-9.7722 11.855-9.7722h61.806 61.806l15.384 9.8722 15.384 9.8722-0.43995 87.919c-0.24202 48.356-1.3153 111.02-2.3852 139.25l-1.9452 51.33-39.753 31.485c-21.864 17.317-41.366 32.476-43.337 33.687-2.0406 1.2537-22.245-13.03-46.908-33.162zm49.928-69.433 18.056-14.269v-89.883-89.883h-22.261-22.261v106.7c0 87.628 0.75148 106.24 4.2051 104.15 2.3128-1.3987 12.33-8.9643 22.261-16.812z" fill="#717171"/>
  <path id="path3436" d="m718.84 753.6c-35.575-27.987-38.562-31.13-34.187-35.964 4.054-4.4796 4.794-20.453 4.794-103.47 0-57.527-1.1723-96.926-2.8313-95.156-1.5572 1.6617-10.451 35.579-19.764 75.371-9.3131 39.792-17.699 72.349-18.635 72.347-0.93622-0.002-10.112-38.283-20.391-85.071-10.279-46.787-19.581-86.499-20.671-88.248-1.0905-1.7491-2.6983 35.734-3.5728 83.296l-1.5901 86.476-28.622-23.732c-15.75-13.06-29.04-24.92-29.53-26.38-0.49554-1.4508 1.2933-4.459 3.9753-6.6848 7.1793-5.9583 7.3752-278.61 0.20703-288.08-2.568-3.3953-4.7147-7.2881-4.7703-8.6507-0.0557-1.3626 18.861-2.0782 42.037-1.5901l42.138 0.88736 10.317 36.572c5.6746 20.115 11.172 38.719 12.217 41.343 1.8541 4.6548 4.8235-3.6095 20.282-56.449l6.7455-23.057 45.183 0.10049 45.183 0.1005-8.7456 7.6975-8.7456 7.6975v215.9c0 176.05 0.82308 218.64 4.4591 230.72 2.4525 8.149 4.2414 14.788 3.9753 14.753-0.26618-0.035-18.025-13.864-39.465-30.73zm-736.13-212.03c0.5717-148.23-0.22544-223.72-2.3852-225.88-1.7841-1.7841-3.2438-4.3887-3.2438-5.788s32.432-2.5442 72.071-2.5442h72.071l15.384 9.8722 15.384 9.8722v141.73c0 127.61 0.52614 142.31 5.2809 147.57 2.9045 3.2094 4.6933 6.3422 3.9753 6.9618-0.71807 0.6196-22.056 17.351-47.419 37.181-25.362 19.83-65.433 51.264-89.046 69.854l-42.933 33.799 0.85868-222.63zm88.378 28.955 20.395-16.696 0.04251-89.841 0.04251-89.841h-22.261-22.261v106.54c0 58.595 0.82056 106.54 1.8235 106.54s11.001-7.5132 22.219-16.696zm140.66 68.323-43.599-34.136-0.12919-138.71-0.12919-138.71 12.653-8.3731c12.617-8.3493 12.835-8.3731 76.82-8.3731 63.887 0 64.214 0.0355 74.803 8.1124l10.636 8.1124-0.0159 138.97-0.0159 138.97-40.985 33.278c-22.542 18.303-42.213 33.664-43.713 34.136-1.5007 0.47217-22.348-14.503-46.327-33.278zm67.45-156.57v-108.13h-22.261-22.261l0.13996 91.431 0.13996 91.431 21.326 16.667c11.73 9.1668 21.684 16.68 22.122 16.696 0.43726 0.016 0.79503-48.628 0.79503-108.1zm124.47 156.31-41.863-34.184-1.9476-138.4-1.9477-138.4 12.778-10.12 12.778-10.12h61.223 61.223l13.844 8.7456 13.844 8.7456-0.11162 139.93-0.11163 139.93-38.557 30.212c-21.206 16.617-40.971 31.93-43.922 34.029-4.5824 3.2598-11.478-1.1735-47.229-30.366zm45.247-67.648 21.091-16.282v-90.255-90.255h-23.852-23.852v106.54c0 58.595 1.2424 106.54 2.7609 106.54s12.252-7.3268 23.852-16.282z" fill="#4d4d4d"/>
  <path id="path3434" d="m718.99 753.4c-34.927-27.689-38.367-31.303-34.187-35.922 3.8687-4.2748 4.6477-21.841 4.6477-104.8 0-54.814-1.0382-98.623-2.307-97.354-1.2688 1.2688-10.35 36.074-20.181 77.345-9.8308 41.271-18.629 73.744-19.552 72.163-0.92283-1.581-10.088-41.155-20.366-87.942-10.279-46.787-19.762-85.069-21.074-85.071-1.3118-0.002-2.3852 38.736-2.3852 86.083v86.086l-24.095-20.097c-13.252-11.053-27.168-22.491-30.925-25.419-6.4954-5.0609-6.5614-5.6192-1.347-11.381 5.0157-5.5423 5.4835-17.955 5.4835-145.49 0-125.28-0.53421-140.02-5.2632-145.24-5.0742-5.607-3.72-5.8158 37.718-5.8158h42.981l10.682 39.753c5.8751 21.864 11.644 39.753 12.821 39.753 1.1763 0 3.0929-3.9355 4.2592-8.7456 1.1662-4.8101 6.3917-22.699 11.612-39.753l9.4916-31.007 43.591 0.16681c40.551 0.15517 43.092 0.51497 36.436 5.1582l-7.1555 4.9914v218.65c0 183.26 0.74917 220.77 4.6292 231.77 2.5461 7.2164 4.335 13.073 3.9753 13.015-0.35968-0.0582-18.13-13.96-39.489-30.892zm-736.3-214.3c0.61194-162.9-0.1361-224.21-2.7746-227.39-3.039-3.6618 7.9225-4.3526 69.061-4.3526h72.674l15.166 10.336 15.166 10.336 0.006 141.93c0.005 121.8 0.67747 142.48 4.7414 145.86 2.6044 2.1615 3.9998 5.12 3.1009 6.5745-1.6837 2.7243-175.22 139.74-176.99 139.74-0.54336 0.00022-0.6109-100.36-0.15011-223.03zm108.13-75.786-0.84272-90.758h-20.671-20.671l-0.83706 109.15-0.83706 109.15 22.351-18.388 22.351-18.388-0.84272-90.758zm120.8 174.73-43.728-34.906 0.006-137.55 0.006-137.55 13.844-8.7456 13.844-8.7456h62.688 62.688l10.919 8.328 10.919 8.328-0.0576 138.76-0.0577 138.76-41.198 33.363c-22.659 18.35-42.31 33.702-43.67 34.117-1.36 0.41479-22.15-14.954-46.201-34.152zm67.58-155.77v-108.13h-22.261-22.261v91.436 91.436l21.466 16.599c11.807 9.1297 21.824 16.641 22.261 16.692 0.43728 0.0507 0.79505-48.565 0.79505-108.04zm124.75 156.4-41.878-33.957-0.0933-139.29-0.0933-139.29 8.7456-7.6975c8.6474-7.6111 9.4921-7.6986 75.23-7.798 66.441-0.10043 66.491-0.0952 77.12 8.0119l10.636 8.1124v138.02 138.02l-31.007 24.904c-17.054 13.697-36.807 29.406-43.895 34.908l-12.888 10.004-41.878-33.957zm45.556-67.958 20.603-16.51-0.84282-90.822-0.84282-90.822h-22.261-22.261l-0.83735 107.33c-0.57237 73.367 0.21912 107.33 2.5016 107.33 1.8364 0 12.61-7.4295 23.942-16.51z" fill="#2a2a2a"/>
  <path id="path3432" d="m720.12 753.7c-27.526-22.15-36.753-31.287-34.187-33.853 4.1533-4.1533 5.083-207.12 0.93702-204.56-1.4177 0.87617-10.349 34.591-19.847 74.923-9.4982 40.331-18.001 73.33-18.894 73.33-0.89342 0-10.127-38.64-20.519-85.866s-20.027-85.866-21.41-85.866c-1.3836 0-2.8963 38.476-3.3617 85.503l-0.84615 85.503-29.86-25.593c-25.973-22.261-29.181-26.089-24.647-29.404 4.6957-3.4336 5.2131-17.883 5.2131-145.59 0-91.087-1.137-142.48-3.1802-143.74-9.4552-5.8436 0.47337-7.9505 37.466-7.9505h40.646l10.682 39.753c5.875 21.864 11.652 39.753 12.837 39.753 2.1263 0 5.9379-11.252 19.122-56.449l6.7255-23.057h43.506c40.283 0 42.982 0.36674 36.438 4.9506l-7.0681 4.9506 0.13962 220.05c0.1113 175.44 1.0024 222.47 4.3956 231.98 2.3408 6.5592 4.0668 11.847 3.8357 11.751-0.2312-0.096-17.386-13.827-38.122-30.514zm-738.27-217.67v-225.49h71.221 71.221l13.844 8.7456 13.844 8.7456 0.006 142.76c0.005 128.72 0.51944 143.13 5.2281 146.58 4.4897 3.2829-7.0005 13.407-81.89 72.156-47.912 37.585-88.544 69.161-90.293 70.168-2.1075 1.2134-3.1802-74.232-3.1802-223.66zm93.021 32.416 16.696-13.624v-91.93-91.93h-22.261-22.261v110.21c0 104.62 0.2825 109.97 5.5654 105.55 3.061-2.5612 13.079-10.787 22.261-18.28zm136.75 69.221-43.728-35.157 0.006-137.24 0.006-137.24 13.844-8.7456 13.844-8.7456 63.271 0.0932 63.271 0.0932 10.336 9.4026 10.336 9.4026-0.15882 137.59-0.15881 137.59-41.582 33.392c-22.87 18.366-42.476 33.692-43.569 34.058-1.0928 0.36626-21.665-15.155-45.715-34.491zm67.58-155.4v-108.13h-21.921c-17.056 0-22.35 1.1166-23.852 5.0304-1.0617 2.7667-1.9304 43.328-1.9304 90.137v85.106l22.738 17.991c12.506 9.8948 23.239 17.991 23.852 17.991 0.61256 0 1.1137-48.657 1.1137-108.13zm124.94 156.22-41.795-33.786-0.22923-138.54-0.22926-138.54 8.9196-8.5455 8.9196-8.5455h65.077c64.422 0 65.197 0.0812 76.946 8.0652l11.869 8.0652v137.84 137.84l-13.516 10.947c-7.4338 6.0208-27.162 21.754-43.841 34.964l-30.325 24.017-41.795-33.786zm43.782-65.946 22.092-17.849v-92.007-92.007l-23.057 0.93438-23.057 0.93437-0.83681 108.92c-0.46024 59.907-0.0254 108.92 0.96472 108.92 0.99083 0 11.743-8.0322 23.893-17.849z" fill="#010101"/>
 </g>
</svg>
